# AST/ASF file generated using VICON BodyLanguage
# -----------------------------------------------
:version 1.10
:name VICON
:units
  mass 1.0
  length 0.45
  angle deg
:documentation
   .ast/.asf automatically generated from VICON data using
   VICON BodyBuilder and BodyLanguage model FoxedUp or BRILLIANT.MOD
:root
   order TX TY TZ RX RY RZ
   axis XYZ
   position 0 0 0  
   orientation 0 0 0 
:bonedata
  begin
     id 1 
     name lhipjoint
     direction 0.602128 -0.715006 0.355257 
     length 2.21237 
     axis 0 0 0  XYZ
  end
  begin
     id 2 
     name lfemur
     direction 0.34202 -0.939693 0  
     length 6.71649  
     axis 0 0 20  XYZ
    dof rx ry rz
    limits (-160.0 20.0)
           (-70.0 70.0)
           (-60.0 70.0)
  end
  begin
     id 3 
     name ltibia
     direction 0.34202 -0.939693 0   
     length 6.97123   
     axis 0 0 20   XYZ
    dof rx
    limits (-10.0 170.0)
  end
  begin
     id 4 
     name lfoot
     direction 0.0655697 -0.180151 0.981451   
     length 1.80924   
     axis -90 7.62852e-016 20   XYZ
    dof rx rz
    limits (-45.0 90.0)
           (-70.0 20.0)
  end
  begin
     id 5 
     name ltoes
     direction 1.53545e-011 -4.21827e-011 1   
     length 0.916331   
     axis -90 7.62852e-016 20   XYZ
    dof rx
    limits (-90.0 20.0)
  end
  begin
     id 6 
     name rhipjoint
     direction -0.625414 -0.698792 0.347201   
     length 2.2637  
     axis 0 0 0  XYZ 
  end
  begin
     id 7 
     name rfemur
     direction -0.34202 -0.939693 0   
     length 7.07595   
     axis 0 0 -20   XYZ
    dof rx ry rz
    limits (-160.0 20.0)
           (-70.0 70.0)
           (-70.0 60.0)
  end
  begin
     id 8 
     name rtibia
     direction -0.34202 -0.939693 0   
     length 7.22924   
     axis 0 0 -20   XYZ
    dof rx
    limits (-10.0 170.0)
 end
 begin
     id 9 
     name rfoot
     direction -0.0766747 -0.210662 0.974547   
     length 1.98482  
     axis -90 -7.62852e-016 -20   XYZ
    dof rx rz
    limits (-45.0 90.0)
           (-20.0 70.0)
  end
  begin
     id 10 
     name rtoes
     direction -1.53532e-011 -4.21867e-011 1   
     length 0.999842   
     axis -90 -7.62852e-016 -20   XYZ
    dof rx
    limits (-90.0 20.0)
  end
  begin
     id 11 
     name lowerback
     direction -0.0224668 0.997354 -0.0691422   
     length 2.09945   
     axis 0 0 0   XYZ
    dof rx ry rz
    limits (-20.0 45.0)
           (-30.0 30.0)
           (-30.0 30.0)
  end
  begin
     id 12 
     name upperback
     direction 0.0134698 0.998451 -0.0539888   
     length 2.09758   
     axis 0 0 0   XYZ
    dof rx ry rz
    limits (-20.0 45.0)
           (-30.0 30.0)
           (-30.0 30.0)
  end
  begin
     id 13 
     name thorax
     direction 0.0241905 0.99948 -0.0213333   
     length 2.10428   
     axis 0 0 0   XYZ
    dof rx ry rz
    limits (-20.0 45.0)
           (-30.0 30.0)
           (-30.0 30.0)
  end
  begin
     id 14 
     name lowerneck
     direction -0.00866847 0.995978 0.0891737   
     length 1.3959   
     axis 0 0 0   XYZ
    dof rx ry rz
    limits (-20.0 45.0)
           (-30.0 30.0)
           (-30.0 30.0)
  end
  begin
     id 15 
     name upperneck
     direction 0.0680679 0.992203 0.104404   
     length 1.39452   
     axis 0 0 0   XYZ
    dof rx ry rz
    limits (-20.0 45.0)
           (-30.0 30.0)
           (-30.0 30.0)
  end
  begin
     id 16
     name head
     direction 0.0242216 0.999358 0.0264054  
     length 1.40433  
     axis 0 0 0   XYZ
    dof rx ry rz
    limits (-20.0 45.0)
           (-30.0 30.0)
           (-30.0 30.0)
  end
  begin
     id 17 
     name lclavicle
     direction 0.929368 0.362991 -0.0671771  
     length 3.04887  
     axis 0 0 0   XYZ
    dof ry rz
    limits (-20.0 10.0)
           (0.0 20.0)
  end
  begin
     id 18 
     name lhumerus
     direction 1 -4.48967e-011 -7.13741e-028   
     length 4.77195   
     axis -180 -30 -90   XYZ
    dof rx ry rz
    limits (-60.0 90.0)
           (-90.0 90.0)
           (-90.0 90.0)
  end
  begin
     id 19
     name lradius
     direction 1 -4.48977e-011 3.60404e-027   
     length 2.98444   
     axis -180 -30 -90   XYZ
    dof rx
    limits (-10.0 170.0)
  end
  begin
     id 20
     name lwrist
     direction 1 -4.48997e-011 7.54877e-027   
     length 1.49222   
     axis -7.18178e-015 90 90   XYZ
    dof ry
    limits (-180.0 0.0)
 end
  begin
     id 21 
     name lhand
     direction 1 -4.489e-011 1.51105e-026   
     length 0.992285   
     axis -9.63605e-015 90 90   XYZ
    dof rx rz
    limits (-90.0 90.0)
           (-45.0 45.0)
  end
  begin
     id 22 
     name lfingers
     direction 1 -4.48998e-011 3.01948e-026   
     length 0.800006   
     axis -1.92718e-014 90 90   XYZ
    dof rx
    limits (0.0 90.0)
  end
  begin
     id 23
     name lthumb
     direction 0.707107 -6.34881e-011 0.707107   
     length 1.14865   
     axis -90 45 -3.53137e-014   XYZ
    dof rx rz
    limits (-45.0 45.0)
           (-45.0 45.0)
  end
  begin
     id 24 
     name rclavicle
     direction -0.945672 0.324529 0.0196374   
     length 3.4236  
     axis 0 0 0   XYZ 
    dof ry rz
    limits (-10.0 20.0)
           (-20.0 0.0)
  end
  begin
     id 25 
     name rhumerus
     direction -1 -4.4896e-011 1.02757e-029  
     length 4.62052   
     axis -180 30 90   XYZ
    dof rx ry rz
    limits (-90.0 60.0)
           (-90.0 90.0)
           (-90.0 90.0)
  end
  begin
     id 26 
     name rradius
     direction -1 -4.48982e-011 3.85962e-027   
     length 2.95332   
     axis -180 30 90   XYZ
    dof rx
    limits (-10.0 170.0)
  end
  begin
     id 27 
     name rwrist
     direction -1 -4.48961e-011 7.55118e-027   
     length 1.47666   
     axis -7.18178e-015 -90 -90   XYZ
    dof ry
    limits (-180.0 0.0)
  end
  begin
     id 28
     name rhand
     direction -1 -4.48984e-011 1.50994e-026   
     length 0.990956   
     axis -9.63605e-015 -90 -90   XYZ
    dof rx rz
    limits (-90.0 90.0)
           (-45.0 45.0)
  end
  begin
     id 29
     name rfingers
     direction -1 -4.4892e-011 3.02158e-026   
     length 0.798934   
     axis -1.92718e-014 -90 -90   XYZ
    dof rx
    limits (0.0 90.0)
  end
  begin
     id 30
     name rthumb
     direction -0.707107 -6.34916e-011 0.707107   
     length 1.14711   
     axis -90 -45 3.53137e-014   XYZ
    dof rx rz
    limits (-45.0 45.0)
           (-45.0 45.0)
  end
:hierarchy
  begin
    root lhipjoint rhipjoint lowerback
    lhipjoint lfemur
    lfemur ltibia
    ltibia lfoot
    lfoot ltoes
    rhipjoint rfemur
    rfemur rtibia
    rtibia rfoot
    rfoot rtoes
    lowerback upperback
    upperback thorax
    thorax lowerneck lclavicle rclavicle
    lowerneck upperneck
    upperneck head
    lclavicle lhumerus
    lhumerus lradius
    lradius lwrist
    lwrist lhand lthumb
    lhand lfingers
    rclavicle rhumerus
    rhumerus rradius
    rradius rwrist
    rwrist rhand rthumb
    rhand rfingers
  end

#!OML:ASF H:\ManfredObstacles\Project 1\Capture day 1\Session 1\Male.ASF
:FULLY-SPECIFIED
:DEGREES
80
root -0.285471 16.1817 30.2752 -167.625 -9.19566 180.226
lowerback -8.83324 -3.2561 -4.90324
upperback 0.785803 -3.89645 1.20725
thorax 6.20184 -2.10708 3.46268
lowerneck 3.92482 -1.9881 -4.66616
upperneck -12.2894 -2.49029 9.78669
head -4.10282 -1.7788 3.91341
rclavicle 3.79679e-014 -1.98785e-015
rhumerus -49.5159 -33.9714 -59.6312
rradius 20.1681
rwrist 47.2454
rhand -0.346775 -6.66263
rfingers 7.12502
rthumb 25.2582 -35.0107
lclavicle 3.79679e-014 -1.98785e-015
lhumerus -26.5811 18.4342 81.4886
lradius 16.1716
lwrist -35.3556
lhand -8.33549 9.9753
lfingers 7.12502
lthumb 17.586 39.1999
rfemur -38.2256 -7.11748 22.3689
rtibia 25.9661
rfoot -15.7566 4.96617
rtoes 6.7184
lfemur 2.89458 -4.4342 -20.4285
ltibia -3.81667e-014
lfoot -3.48431 -8.78077
ltoes -4.32041
81
root -0.2518 16.1789 30.0961 -167.718 -9.4204 180.122
lowerback -9.04078 -3.34783 -5.05995
upperback 0.800422 -3.9893 1.17135
thorax 6.35353 -2.16057 3.48719
lowerneck 4.07953 -1.96531 -4.66703
upperneck -12.128 -2.45608 9.74512
head -4.08364 -1.75146 3.89782
rclavicle 1.09332e-015 -8.74653e-015
rhumerus -49.918 -34.4414 -59.094
rradius 20.0072
rwrist 47.9069
rhand -0.347819 -6.8826
rfingers 7.12502
rthumb 25.2572 -35.2308
lclavicle 1.09332e-015 -8.74653e-015
lhumerus -26.491 17.8685 81.8114
lradius 16.4544
lwrist -34.6311
lhand -8.43839 9.93492
lfingers 7.12502
lthumb 17.487 39.1684
rfemur -37.3341 -6.74318 22.2701
rtibia 25.9606
rfoot -13.6942 3.93
rtoes 3.33267
lfemur 3.67532 -4.74575 -20.2926
ltibia 3.81667e-014
lfoot -3.12139 -8.41878
ltoes -4.27191
82
root -0.214427 16.1894 29.9073 -167.847 -9.55633 180.152
lowerback -9.31669 -3.33173 -5.04241
upperback 0.840024 -3.95121 1.10862
thorax 6.5424 -2.14426 3.40209
lowerneck 4.07152 -2.029 -4.65039
upperneck -11.7736 -2.53667 9.74179
head -3.96958 -1.77477 3.88805
rclavicle 2.85256e-014 -1.78906e-015
rhumerus -50.3515 -34.8403 -58.7495
rradius 19.9683
rwrist 48.0384
rhand -0.373506 -6.96858
rfingers 7.12502
rthumb 25.2326 -35.3202
lclavicle 2.85256e-014 -1.78906e-015
lhumerus -26.36 17.4717 82.0905
lradius 16.755
lwrist -34.116
lhand -8.57692 9.71227
lfingers 7.12502
lthumb 17.3537 38.9576
rfemur -36.4852 -6.5012 22.4656
rtibia 25.9977
rfoot -13.0064 3.18753
rtoes 1.89101
lfemur 4.49926 -4.94455 -20.0072
ltibia -1.27222e-014
lfoot -2.68568 -8.1412
ltoes -5.33489
83
root -0.179245 16.2105 29.713 -167.939 -9.55772 180.205
lowerback -9.63218 -3.30716 -4.9623
upperback 0.841638 -3.90838 1.04441
thorax 6.70839 -2.1223 3.28049
lowerneck 4.16155 -2.06836 -4.54282
upperneck -11.5001 -2.58585 9.63758
head -3.9023 -1.78503 3.83444
rclavicle 5.31749e-015 -2.38542e-015
rhumerus -50.4445 -34.7181 -58.9113
rradius 20.0142
rwrist 47.6432
rhand -0.201923 -7.15297
rfingers 7.12502
rthumb 25.397 -35.4814
lclavicle 5.31749e-015 -2.38542e-015
lhumerus -26.3695 16.964 82.373
lradius 17.1754
lwrist -33.5527
lhand -8.53512 9.83175
lfingers 7.12502
lthumb 17.3939 39.0735
rfemur -35.7951 -6.56885 22.8279
rtibia 26.0217
rfoot -12.7445 3.00173
rtoes -0.211677
lfemur 5.26891 -5.0103 -19.7183
ltibia 4.13472e-014
lfoot -1.92285 -7.79777
ltoes -7.11448
84
root -0.144858 16.2266 29.5196 -168.013 -9.5018 180.416
lowerback -9.91392 -3.31305 -4.75112
upperback 0.804903 -3.9318 1.08475
thorax 6.81929 -2.12853 3.18765
lowerneck 4.27971 -1.97701 -4.58999
upperneck -11.3438 -2.46265 9.63134
head -3.88376 -1.71536 3.83408
rclavicle -1.19271e-015 2.0276e-014
rhumerus -50.2806 -34.5419 -59.0833
rradius 19.891
rwrist 47.4822
rhand -0.0977003 -7.13039
rfingers 7.12502
rthumb 25.4968 -35.4446
lclavicle -1.19271e-015 2.0276e-014
lhumerus -26.4462 16.8863 82.5661
lradius 17.4924
lwrist -33.2566
lhand -8.47147 10.1785
lfingers 7.12502
lthumb 17.4551 39.4148
rfemur -35.1452 -6.49804 23.2758
rtibia 26.0452
rfoot -10.9971 2.89205
rtoes -4.28975
lfemur 6.01167 -4.99081 -19.2629
ltibia 1.90833e-014
lfoot -0.950808 -7.37915
ltoes -9.24971
85
root -0.10945 16.2417 29.3243 -168.132 -9.44377 180.794
lowerback -10.1838 -3.31404 -4.40138
upperback 0.805639 -3.97241 1.21029
thorax 6.96128 -2.14066 3.1036
lowerneck 4.14638 -1.86007 -4.78714
upperneck -11 -2.31186 9.71499
head -3.76488 -1.62165 3.87715
rclavicle -9.19379e-015 4.96962e-015
rhumerus -50.1172 -34.636 -59.0418
rradius 19.6911
rwrist 47.8179
rhand -0.220826 -6.80157
rfingers 7.12502
rthumb 25.3788 -35.1325
lclavicle -9.19379e-015 4.96962e-015
lhumerus -26.4978 16.968 82.7898
lradius 17.7751
lwrist -32.8358
lhand -8.45354 10.2026
lfingers 7.12502
lthumb 17.4724 39.4374
rfemur -34.3811 -6.21759 23.7805
rtibia 26.0752
rfoot -11.4128 2.94001
rtoes -1.88411
lfemur 6.77913 -4.93951 -18.6237
ltibia -2.8625e-014
lfoot 0.275189 -6.90589
ltoes -10.1211
86
root -0.0733979 16.2668 29.1241 -168.266 -9.30383 181.106
lowerback -10.4427 -3.28281 -4.07203
upperback 0.791127 -3.96699 1.27141
thorax 7.073 -2.12877 2.97183
lowerneck 4.09786 -1.77986 -4.81034
upperneck -10.6403 -2.20842 9.65894
head -3.65713 -1.55057 3.85111
rclavicle -3.29486e-014 9.14409e-015
rhumerus -50.0114 -34.5821 -59.1682
rradius 19.7263
rwrist 48.0889
rhand -0.241573 -6.68583
rfingers 7.12502
rthumb 25.359 -35.0196
lclavicle -3.29486e-014 9.14409e-015
lhumerus -26.7784 16.5829 83.0479
lradius 18.2687
lwrist -31.9124
lhand -8.6403 9.69861
lfingers 7.12502
lthumb 17.2927 38.9493
rfemur -33.5288 -6.07492 24.2277
rtibia 26.1331
rfoot -12.3558 3.44367
rtoes 2.48135
lfemur 4.37841 -4.76299 -18.021
ltibia 6.25019
lfoot -0.868364 -7.63361
ltoes -10.588
87
root -0.032757 16.2904 28.922 -168.407 -9.00014 181.278
lowerback -10.618 -3.21164 -3.89389
upperback 0.732061 -3.89008 1.26153
thorax 7.0891 -2.08421 2.86797
lowerneck 4.12712 -1.71305 -4.73058
upperneck -10.306 -2.12136 9.53095
head -3.57133 -1.48981 3.78842
rclavicle 1.00386e-014 -1.25234e-014
rhumerus -49.6933 -34.061 -59.7996
rradius 19.9647
rwrist 47.6241
rhand 0.00316601 -6.94404
rfingers 7.12502
rthumb 25.5934 -35.2444
lclavicle 1.00386e-014 -1.25234e-014
lhumerus -27.2418 15.8652 83.268
lradius 18.8497
lwrist -30.5853
lhand -8.88593 9.31734
lfingers 7.12502
lthumb 17.0562 38.5886
rfemur -32.7429 -6.2786 24.6942
rtibia 26.2358
rfoot -12.6042 4.25871
rtoes 5.29664
lfemur 2.69473 -4.46122 -17.6483
ltibia 11.1118
lfoot -1.00578 -7.98158
ltoes -11.4757
88
root 0.012034 16.2994 28.7215 -168.601 -8.6684 181.288
lowerback -10.6923 -3.13887 -3.88729
upperback 0.703513 -3.78739 1.19107
thorax 7.08642 -2.03199 2.80519
lowerneck 4.10081 -1.69787 -4.65724
upperneck -9.95325 -2.10528 9.40658
head -3.4652 -1.46323 3.7296
rclavicle -3.07619e-014 -1.66979e-014
rhumerus -49.1967 -33.8009 -60.4197
rradius 20.051
rwrist 47.2252
rhand 0.184633 -7.17778
rfingers 7.12502
rthumb 25.7672 -35.453
lclavicle -3.07619e-014 -1.66979e-014
lhumerus -27.6159 14.711 83.5887
lradius 19.4057
lwrist -28.8525
lhand -8.83392 9.38716
lfingers 7.12502
lthumb 17.1063 38.6541
rfemur -31.9463 -6.71298 25.0775
rtibia 26.3669
rfoot -13.2434 5.16254
rtoes 8.25144
lfemur 1.2602 -4.83567 -17.5022
ltibia 15.5975
lfoot -0.755399 -7.49636
ltoes -10.4682
89
root 0.0567592 16.3044 28.5264 -168.806 -8.33537 181.231
lowerback -10.767 -3.02972 -3.87972
upperback 0.720476 -3.63001 1.05292
thorax 7.12362 -1.95231 2.67892
lowerneck 4.22441 -1.76586 -4.5533
upperneck -9.74459 -2.19641 9.30819
head -3.41966 -1.49942 3.6828
rclavicle 2.23633e-014 3.18055e-015
rhumerus -48.7375 -34.0905 -60.7478
rradius 19.9846
rwrist 47.3818
rhand 0.132823 -7.09471
rfingers 7.12502
rthumb 25.7176 -35.3771
lclavicle 2.23633e-014 3.18055e-015
lhumerus -27.8693 13.4005 83.9469
lradius 19.9785
lwrist -27.2308
lhand -8.59009 9.36845
lfingers 7.12502
lthumb 17.341 38.6149
rfemur -31.0438 -6.88839 25.2469
rtibia 26.4896
rfoot -13.4199 5.94928
rtoes 10.106
lfemur -0.331359 -5.12314 -17.4484
ltibia 20.262
lfoot -0.106348 -6.74845
ltoes -9.61571
90
root 0.101685 16.3121 28.3354 -169.038 -7.92771 181.118
lowerback -10.7925 -2.85932 -3.86386
upperback 0.754066 -3.38852 0.843057
thorax 7.13963 -1.82959 2.4891
lowerneck 4.18464 -1.77346 -4.57422
upperneck -9.37956 -2.205 9.44904
head -3.30088 -1.49763 3.72238
rclavicle -4.22417e-015 2.78299e-015
rhumerus -48.2444 -33.9655 -61.4758
rradius 20.1723
rwrist 46.9685
rhand 0.135389 -7.04658
rfingers 7.12502
rthumb 25.72 -35.3286
lclavicle -4.22417e-015 2.78299e-015
lhumerus -28.0527 12.6496 84.0373
lradius 20.398
lwrist -26.2872
lhand -8.3001 9.03788
lfingers 7.12502
lthumb 17.6201 38.2595
rfemur -30.0936 -6.92849 25.3187
rtibia 26.5758
rfoot -13.5547 6.73981
rtoes 12.8804
lfemur -2.17934 -5.04275 -17.4612
ltibia 25.2513
lfoot 1.0073 -5.88561
ltoes -10.7504
91
root 0.14778 16.3152 28.1466 -169.357 -7.52999 180.918
lowerback -10.64 -2.70341 -3.9472
upperback 0.782138 -3.15988 0.615524
thorax 7.05622 -1.71541 2.34148
lowerneck 4.27124 -1.82499 -4.26839
upperneck -9.18406 -2.27164 9.19219
head -3.26008 -1.52156 3.59241
rclavicle -3.50358e-014 1.19271e-015
rhumerus -47.6317 -33.2795 -62.6329
rradius 20.5803
rwrist 45.9375
rhand 0.258275 -7.07898
rfingers 7.12502
rthumb 25.8377 -35.344
lclavicle -3.50358e-014 1.19271e-015
lhumerus -28.2957 12.2858 83.9633
lradius 20.7597
lwrist -25.8921
lhand -7.88052 8.91612
lfingers 7.12502
lthumb 18.0238 38.101
rfemur -29.0525 -7.20879 25.3738
rtibia 26.5845
rfoot -13.9091 7.71815
rtoes 14.4041
lfemur -4.2056 -4.61546 -17.5288
ltibia 30.5493
lfoot 2.72543 -5.34559
ltoes -11.9271
